<svg width="136" height="48" viewBox="0 0 136 48" fill="none" xmlns="http://www.w3.org/2000/svg">
  <path d="M37.275 35.5H30.275V30.5H37.275C39.275 30.5 40.775 29 40.775 27C40.775 25 39.275 23.5 37.275 23.5H30.275V18.5H37.275C42.075 18.5 45.775 22.2 45.775 27C45.775 31.8 42.075 35.5 37.275 35.5Z" fill="#0070F3"/>
  <path d="M25.275 35.5H18.275C13.475 35.5 9.775 31.8 9.775 27C9.775 22.2 13.475 18.5 18.275 18.5H25.275V23.5H18.275C16.275 23.5 14.775 25 14.775 27C14.775 29 16.275 30.5 18.275 30.5H25.275V35.5Z" fill="#0070F3"/>
  <path d="M18.275 24.9H30.275V29.1H18.275V24.9Z" fill="#0070F3"/>
  <path d="M66.331 17.25H61.106V35H66.331V17.25Z" fill="#000"/>
  <path d="M70.6848 25.35C70.6848 23.8 71.5098 22.95 73.1348 22.95C74.6848 22.95 75.5098 23.8 75.5098 25.35V35H80.7348V23.75C80.7348 19.75 78.3848 17.7 75.0098 17.7C73.1348 17.7 71.3598 18.5 70.6848 19.95V17.95H65.4598V35H70.6848V25.35Z" fill="#000"/>
  <path d="M83.5827 26.5C83.5827 21.25 87.3827 17.7 92.6827 17.7C97.9327 17.7 101.433 21.25 101.433 26.5C101.433 31.75 97.9327 35.3 92.6827 35.3C87.3827 35.3 83.5827 31.75 83.5827 26.5ZM96.1577 26.5C96.1577 23.7 94.5577 22.15 92.6827 22.15C90.7577 22.15 89.1577 23.7 89.1577 26.5C89.1577 29.3 90.7577 30.85 92.6827 30.85C94.5577 30.85 96.1577 29.3 96.1577 26.5Z" fill="#000"/>
  <path d="M103.158 26.5C103.158 21.25 106.958 17.7 112.258 17.7C117.508 17.7 121.008 21.25 121.008 26.5C121.008 31.75 117.508 35.3 112.258 35.3C106.958 35.3 103.158 31.75 103.158 26.5ZM115.733 26.5C115.733 23.7 114.133 22.15 112.258 22.15C110.333 22.15 108.733 23.7 108.733 26.5C108.733 29.3 110.333 30.85 112.258 30.85C114.133 30.85 115.733 29.3 115.733 26.5Z" fill="#000"/>
  <path d="M123.186 17.95V35H128.411V26.75L134.336 35H136.011L130.136 26.7L135.711 18.1V17.95H134.036L128.411 25.75V17.95H123.186Z" fill="#000"/>
</svg> 